<svg width="36" height="36" viewBox="0 0 36 36" fill="none" xmlns="http://www.w3.org/2000/svg">
<g clip-path="url(#clip0_1_90)">
<path fill-rule="evenodd" clip-rule="evenodd" d="M13.168 1.18733V10.6389C14.5575 9.73679 16.2166 9.2104 18.0005 9.2104C22.8862 9.2104 26.8473 13.1456 26.8473 17.9999C26.8473 22.8542 22.8862 26.7895 18.0005 26.7895C13.1144 26.7895 9.15332 22.8542 9.15332 17.9999C9.15332 17.8438 9.1578 17.6887 9.16572 17.5344L9.15336 2.88674C3.92035 5.91706 0.400757 11.5484 0.400757 17.9998C0.400757 27.657 8.2807 35.4857 18.0008 35.4857C27.7208 35.4857 35.5993 27.6569 35.5993 17.9999C35.5993 8.34306 27.7208 0.514286 18.0008 0.514286C16.3241 0.514286 14.7043 0.752169 13.168 1.18733Z" fill="url(#paint0_linear_1_90)"/>
<path fill-rule="evenodd" clip-rule="evenodd" d="M16.0459 21.9538C15.3067 21.4807 15.4704 20.8094 15.4704 20.8094V14.7278C15.4704 14.7278 15.4988 13.9304 16.1474 13.6272C16.7959 13.3239 17.331 13.6223 17.9569 14.0103C19.2386 14.9318 21.4553 16.6139 21.4553 16.6139C21.4553 16.6139 23.4739 17.6812 21.4553 19.0865C19.4367 20.4919 17.6796 21.7814 17.6796 21.7814C17.6796 21.7814 16.785 22.4269 16.0459 21.9538Z" fill="url(#paint1_linear_1_90)"/>
</g>
<defs>
<linearGradient id="paint0_linear_1_90" x1="43.8261" y1="-7.84115" x2="-0.507342" y2="37.0692" gradientUnits="userSpaceOnUse">
<stop stop-color="white"/>
<stop offset="1" stop-color="white"/>
</linearGradient>
<linearGradient id="paint1_linear_1_90" x1="21.1511" y1="15.3384" x2="14.4006" y2="20.0607" gradientUnits="userSpaceOnUse">
<stop stop-color="white"/>
<stop offset="1" stop-color="white"/>
</linearGradient>
<clipPath id="clip0_1_90">
<rect width="36" height="36" fill="white"/>
</clipPath>
</defs>
</svg>
