<svg width="46" height="46" viewBox="0 0 46 46" fill="none" xmlns="http://www.w3.org/2000/svg">
<g clip-path="url(#clip0_1_58)">
<path fill-rule="evenodd" clip-rule="evenodd" d="M16.8258 1.51716V13.5942C18.6012 12.4415 20.7212 11.7689 23.0006 11.7689C29.2435 11.7689 34.3049 16.7971 34.3049 22.9999C34.3049 29.2027 29.2435 34.2311 23.0006 34.2311C16.7573 34.2311 11.6959 29.2027 11.6959 22.9999C11.6959 22.8004 11.7016 22.6023 11.7118 22.4051L11.696 3.68863C5.00934 7.56071 0.512085 14.7563 0.512085 22.9998C0.512085 35.3395 10.5809 45.3429 23.0011 45.3429C35.421 45.3429 45.488 35.3394 45.488 22.9999C45.488 10.6606 35.421 0.657166 23.0011 0.657166C20.8585 0.657166 18.7889 0.961128 16.8258 1.51716Z" fill="url(#paint0_linear_1_58)"/>
<path fill-rule="evenodd" clip-rule="evenodd" d="M20.5031 28.0521C19.5587 27.4476 19.7677 26.5898 19.7677 26.5898V18.8188C19.7677 18.8188 19.8041 17.8 20.6328 17.4125C21.4615 17.025 22.1453 17.4062 22.945 17.902C24.5827 19.0795 27.4152 21.2288 27.4152 21.2288C27.4152 21.2288 29.9945 22.5926 27.4152 24.3883C24.8358 26.184 22.5906 27.8318 22.5906 27.8318C22.5906 27.8318 21.4475 28.6566 20.5031 28.0521Z" fill="url(#paint1_linear_1_58)"/>
</g>
<defs>
<linearGradient id="paint0_linear_1_58" x1="56" y1="-10.0192" x2="-0.648265" y2="47.3662" gradientUnits="userSpaceOnUse">
<stop stop-color="#CE0035"/>
<stop offset="1" stop-color="#6950FF"/>
</linearGradient>
<linearGradient id="paint1_linear_1_58" x1="27.0265" y1="19.5991" x2="18.4008" y2="25.6331" gradientUnits="userSpaceOnUse">
<stop stop-color="#BF0046"/>
<stop offset="1" stop-color="#AE0058"/>
</linearGradient>
<clipPath id="clip0_1_58">
<rect width="46" height="46" fill="white"/>
</clipPath>
</defs>
</svg>
